<?xml version="1.0" encoding="UTF-8" standalone="no"?><!DOCTYPE svg PUBLIC "-//W3C//DTD SVG 1.1//EN" "http://www.w3.org/Graphics/SVG/1.1/DTD/svg11.dtd"><svg width="100%" height="100%" viewBox="0 0 2292 2299" version="1.1" xmlns="http://www.w3.org/2000/svg" xmlns:xlink="http://www.w3.org/1999/xlink" xml:space="preserve" xmlns:serif="http://www.serif.com/" style="fill-rule:evenodd;clip-rule:evenodd;stroke-linejoin:round;stroke-miterlimit:2;"><rect id="Artboard1" x="0" y="0" width="2291.58" height="2298.16" style="fill:none;"/><clipPath id="_clip1"><rect x="0" y="0" width="2291.58" height="2298.16"/></clipPath><g clip-path="url(#_clip1)"><g><path d="M1458.33,3.468c221.014,0 432.976,87.797 589.256,244.078c156.28,156.28 244.078,368.242 244.078,589.255l-0,631.499c-0,221.014 -87.798,432.975 -244.078,589.256c-156.28,156.28 -368.242,244.077 -589.256,244.077l-624.909,0c-221.013,0 -432.975,-87.797 -589.255,-244.077c-156.281,-156.281 -244.078,-368.242 -244.078,-589.256l-0,-631.499c-0,-221.013 87.797,-432.975 244.078,-589.255c156.28,-156.281 368.242,-244.078 589.255,-244.078c203.555,0 421.355,0 624.909,0Z" style="fill:url(#_Radial2);"/><g><path d="M1451.71,1099.4l-287.756,-593.723c0,-0 -48.69,-71.465 -107.83,0.21l-501.053,1245.5c0,0 -20.688,66.129 55.169,78.59l327.879,1.145c-0,-0 31.973,-4.402 44.511,-25.149l464.741,-646.326c-0,-0 16.201,-22.222 4.339,-60.244Z" style="fill:#fff;"/><path d="M1453.61,1309.27l-308.851,429.754c0,0 -36.326,75.108 46.726,90.329l490.57,0.564c-0,-0 75.251,-4.033 53.142,-84.97l-185.568,-428.788c-0,-0 -41.316,-57.615 -96.019,-6.889Z" style="fill:#fff;"/></g></g></g><defs><radialGradient id="_Radial2" cx="0" cy="0" r="1" gradientUnits="userSpaceOnUse" gradientTransform="matrix(2291.58,0,0,2298.17,0.0909462,1152.55)"><stop offset="0" style="stop-color:#0000e1;stop-opacity:1"/><stop offset="0.39" style="stop-color:#121ce4;stop-opacity:1"/><stop offset="0.73" style="stop-color:#537fee;stop-opacity:1"/><stop offset="1" style="stop-color:#a6c8ff;stop-opacity:1"/></radialGradient></defs></svg>