<svg viewBox="0 0 550 552" xmlns="http://www.w3.org/2000/svg" xml:space="preserve" style="fill-rule:evenodd;clip-rule:evenodd;stroke-linejoin:round;stroke-miterlimit:2"><g transform="translate(-1370.022 -659.832)"><path style="fill:none" d="M1370.02 659.832h549.978v551.56H1370.02z"/><clipPath id="a"><path d="M1370.02 659.832h549.978v551.56H1370.02z"/></clipPath><g clip-path="url(#a)"><path d="M974.944 221.988c116.056 0 227.366 48.627 309.426 135.183 82.07 86.557 128.17 203.952 128.17 326.362v349.757c0 122.41-46.1 239.81-128.17 326.36-82.06 86.56-193.37 135.19-309.426 135.19H646.793c-116.059 0-227.364-48.63-309.43-135.19-82.065-86.55-128.169-203.95-128.169-326.36V683.533c0-122.41 46.104-239.805 128.169-326.362 82.066-86.556 193.371-135.183 309.43-135.183h328.151Z" style="fill:none" transform="matrix(.45704 0 0 .43333 1274.432 564.471)"/><path d="M950.926 755.809c3.453-5.074 2.287-11.96-2.646-15.621-4.933-3.662-11.883-2.8-15.767 1.954-112.476 136.145-622.63 724.768-182.553-358.115 2.597-6.389 7.456-67.773 2.171-72.218-10.241-8.614-27.601-17.215-47.946-2.687a50.727 50.727 0 0 0-17.471 22.229c-34.395 85.097-305.425 756.879-328.38 813.779a45.17 45.17 0 0 0-3.3 17.78c.29 11.16 4.558 26.21 23.668 34.14a53.653 53.653 0 0 0 20.319 4.07c30.318.12 176.325.63 207.011.74a48.463 48.463 0 0 0 23.882-6.22c4.395-2.47 8.621-5.86 11.406-10.45L950.598 756.3s.121-.166.328-.491ZM966.776 846.739c-7.937 34.873 25.408 161.291-10.4 209.671-35.809 48.38-182.253 49.79-204.452 80.59a39.567 39.567 0 0 0-5.937 12.24c-3.97 14.74-6.585 43.98 34.324 51.46l322.959.37c5.42.01 12.07 1.07 15.94-2.68 6.92-6.72 26.56-13.75 25.6-37.63a58.91 58.91 0 0 0-4.82-21.03c-14.75-33.98-95.62-223.78-118.29-272.54-3.75-8.078-9.35-16.909-17.7-20.017-9.158-3.408-34.47-12.532-37.224-.434Z" style="fill:#fff" transform="matrix(.32497 0 0 .3259 1401.303 686.498)"/></g></g></svg>