<?xml version="1.0" encoding="UTF-8" standalone="no"?><!DOCTYPE svg PUBLIC "-//W3C//DTD SVG 1.1//EN" "http://www.w3.org/Graphics/SVG/1.1/DTD/svg11.dtd"><svg width="100%" height="100%" viewBox="0 0 2292 2299" version="1.1" xmlns="http://www.w3.org/2000/svg" xmlns:xlink="http://www.w3.org/1999/xlink" xml:space="preserve" xmlns:serif="http://www.serif.com/" style="fill-rule:evenodd;clip-rule:evenodd;stroke-linejoin:round;stroke-miterlimit:2;"><rect id="Artboard2" x="0" y="0" width="2291.58" height="2298.16" style="fill:none;"/><clipPath id="_clip1"><rect x="0" y="0" width="2291.58" height="2298.16"/></clipPath><g clip-path="url(#_clip1)"><g><path d="M1458.33,3.468c221.014,0 432.976,87.797 589.256,244.078c156.28,156.28 244.078,368.242 244.078,589.255l-0,631.499c-0,221.014 -87.798,432.975 -244.078,589.256c-156.28,156.28 -368.242,244.077 -589.256,244.077l-624.909,0c-221.013,0 -432.975,-87.797 -589.255,-244.077c-156.281,-156.281 -244.078,-368.242 -244.078,-589.256l-0,-631.499c-0,-221.013 87.797,-432.975 244.078,-589.255c156.28,-156.281 368.242,-244.078 589.255,-244.078l624.909,0Z" style="fill:#222;"/></g><g><path d="M1405.35,1129.77c4.534,-6.563 3.076,-15.536 -3.303,-20.325c-6.379,-4.79 -15.401,-3.688 -20.439,2.497c-145.477,176.597 -804.289,938.795 -235.785,-464.125c3.355,-8.279 9.633,-87.819 2.806,-93.58c-13.233,-11.161 -35.662,-22.306 -61.95,-3.48c-10.101,7.269 -17.929,17.258 -22.573,28.804c-44.442,110.266 -394.628,980.746 -424.287,1054.47c-2.955,7.314 -4.404,15.149 -4.263,23.036c0.373,14.461 5.888,33.969 30.579,44.242c8.324,3.454 17.242,5.247 26.254,5.278c39.172,0.153 227.822,0.811 267.47,0.95c10.81,0.037 21.444,-2.738 30.858,-8.052c5.678,-3.204 11.138,-7.593 14.737,-13.547l399.606,-555.741c-0,-0 0.105,-0.144 0.29,-0.428Z" style="fill:#fff;"/><path d="M1425.96,1247.39c-10.255,45.187 32.829,208.999 -13.438,271.685c-46.267,62.685 -235.482,64.52 -264.163,104.429c-3.453,4.803 -6.048,10.168 -7.671,15.857c-5.13,19.095 -8.509,56.994 44.349,66.681c-0,0 371.831,0.427 417.28,0.48c7.011,0.008 15.6,1.393 20.595,-3.468c8.945,-8.706 34.323,-17.821 33.073,-48.767c-0.379,-9.386 -2.487,-18.621 -6.218,-27.242c-19.059,-44.039 -123.55,-289.973 -152.836,-353.155c-4.852,-10.468 -12.092,-21.91 -22.879,-25.938c-11.828,-4.416 -44.534,-16.239 -48.092,-0.562Z" style="fill:#fff;"/></g></g></svg>